<svg width="41" height="40" viewBox="0 0 41 40" fill="none" xmlns="http://www.w3.org/2000/svg">
<path d="M22.1667 3.33331H22.6217C28.055 3.33331 30.775 3.33331 32.6617 4.66331C33.2017 5.04331 33.6817 5.49665 34.0867 6.00498C35.5 7.78165 35.5 10.3383 35.5 15.455V19.6966C35.5 24.635 35.5 27.105 34.7183 29.0766C33.4617 32.2483 30.805 34.7483 27.435 35.9316C25.34 36.6666 22.7183 36.6666 17.4683 36.6666C14.4717 36.6666 12.9717 36.6666 11.775 36.2466C9.84999 35.57 8.33166 34.1416 7.61332 32.33C7.16666 31.2033 7.16666 29.7916 7.16666 26.97V20" stroke="#83838B" stroke-width="2.5" stroke-linecap="round" stroke-linejoin="round"/>
<path d="M35.5 20C35.5 21.4733 34.9147 22.8862 33.873 23.928C32.8312 24.9697 31.4183 25.555 29.945 25.555C28.835 25.555 27.5267 25.3616 26.4483 25.65C25.9774 25.7766 25.5479 26.0248 25.2031 26.3697C24.8582 26.7146 24.61 27.144 24.4833 27.615C24.195 28.6933 24.3883 30.0016 24.3883 31.1116C24.3883 31.8411 24.2446 32.5635 23.9655 33.2375C23.6863 33.9114 23.2771 34.5238 22.7613 35.0396C22.2455 35.5555 21.6331 35.9646 20.9591 36.2438C20.2852 36.523 19.5628 36.6666 18.8333 36.6666M18.8333 9.99998H5.5M12.1667 3.33331V16.6666" stroke="#83838B" stroke-width="2.5" stroke-linecap="round" stroke-linejoin="round"/>
</svg>
